<?xml version="1.0" standalone="no"?>
<!DOCTYPE svg PUBLIC "-//W3C//DTD SVG 20010904//EN"
 "http://www.w3.org/TR/2001/REC-SVG-20010904/DTD/svg10.dtd">
<svg version="1.0" xmlns="http://www.w3.org/2000/svg"
 width="256.000000pt" height="256.000000pt" viewBox="0 0 256.000000 256.000000"
 preserveAspectRatio="xMidYMid meet">

<g transform="translate(0.000000,256.000000) scale(0.100000,-0.100000)"
fill="#000000" stroke="none">
<path d="M1770 2525 c-98 -28 -160 -64 -160 -93 0 -22 800 -822 822 -822 22 0
55 48 81 118 26 71 36 276 17 362 -43 200 -219 382 -420 435 -68 18 -277 18
-340 0z"/>
<path d="M1446 2297 c-72 -101 -115 -226 -116 -334 0 -42 1 -44 297 -339 l297
-297 72 6 c40 4 103 17 141 29 87 28 217 115 221 147 3 20 -67 95 -410 438
-294 294 -419 413 -435 413 -16 0 -35 -18 -67 -63z"/>
<path d="M1069 1559 c-129 -154 -250 -300 -269 -323 -19 -23 -158 -190 -307
-369 -150 -180 -273 -335 -273 -345 0 -22 280 -302 303 -302 9 0 164 123 344
272 179 150 346 289 369 308 340 279 604 506 604 519 0 20 -501 521 -521 521
-9 0 -121 -126 -250 -281z"/>
<path d="M134 268 c-134 -132 -140 -149 -76 -211 63 -62 79 -56 210 78 62 63
112 122 112 131 0 23 -92 114 -115 114 -10 0 -69 -51 -131 -112z"/>
</g>
</svg>
